<svg width="12" height="5" viewBox="0 0 12 5" fill="none" xmlns="http://www.w3.org/2000/svg">
<path fill-rule="evenodd" clip-rule="evenodd" d="M0.139094 0.174637C0.188802 0.124751 0.249453 0.0837801 0.31758 0.0540653C0.385707 0.0243505 0.459973 0.00647438 0.536136 0.00145905C0.612299 -0.00355629 0.688864 0.00438761 0.761456 0.0248361C0.834047 0.0452845 0.901242 0.0778366 0.9592 0.120633L6.00696 3.84159L11.0547 0.120633C11.1724 0.0393788 11.3222 0.000671369 11.4725 0.0126929C11.6227 0.0247145 11.7617 0.0865228 11.8599 0.185052C11.9582 0.283581 12.008 0.411109 11.9989 0.540676C11.9899 0.670244 11.9226 0.791696 11.8113 0.879359L6.38523 4.87967C6.27987 4.95732 6.1457 5 6.00696 5C5.86822 5 5.73405 4.95732 5.62869 4.87967L0.202656 0.879359C0.0857524 0.793029 0.0134738 0.670314 0.00170084 0.538174C-0.0100721 0.406035 0.0396238 0.27528 0.13987 0.174637" fill="white"/>
</svg>
