<svg width="50" height="50" viewBox="0 0 50 50" fill="none" xmlns="http://www.w3.org/2000/svg">
<rect width="50" height="50" rx="15" fill="#001E02"/>
<path d="M35.5 19C37.9853 19 40 16.9853 40 14.5C40 12.0147 37.9853 10 35.5 10C33.0147 10 31 12.0147 31 14.5C31 16.9853 33.0147 19 35.5 19Z" stroke="white" stroke-width="1.5" stroke-linecap="round" stroke-linejoin="round"/>
<path d="M17.5 26.5H25" stroke="white" stroke-width="1.5" stroke-linecap="round" stroke-linejoin="round"/>
<path d="M17.5 32.5H31" stroke="white" stroke-width="1.5" stroke-linecap="round" stroke-linejoin="round"/>
<path d="M28 10H20.5C13 10 10 13 10 20.5V29.5C10 37 13 40 20.5 40H29.5C37 40 40 37 40 29.5V22" stroke="white" stroke-width="1.5" stroke-linecap="round" stroke-linejoin="round"/>
</svg>
