<svg width="50" height="50" viewBox="0 0 50 50" fill="none" xmlns="http://www.w3.org/2000/svg">
<rect width="50" height="50" rx="15" fill="#36E326"/>
<path d="M26.5003 8.5C19.6003 8.5 13.9003 13.6 13.1503 20.35L10.7503 23.5C10.0003 24.7 9.8503 26.2 10.4503 27.4C11.0503 28.45 11.9503 29.2 13.0003 29.35V31C13.0003 33.7 14.9503 36.1 17.5003 36.85V41.5H34.0003V33.25C37.7503 30.7 40.0003 26.65 40.0003 22C40.0003 14.5 34.0003 8.5 26.5003 8.5ZM31.0003 31.45V38.5H20.5003V34H19.0003C17.3503 34 16.0003 32.65 16.0003 31V26.5H13.7503C13.1503 26.5 12.7003 25.75 13.1503 25.3L16.0003 21.55C16.3003 16 20.8003 11.5 26.5003 11.5C32.3503 11.5 37.0003 16.15 37.0003 22C37.0003 26.2 34.6003 29.8 31.0003 31.45Z" fill="white"/>
</svg>
