<svg width="50" height="50" viewBox="0 0 50 50" fill="none" xmlns="http://www.w3.org/2000/svg">
<rect width="50" height="50" rx="15" fill="#001E02"/>
<path d="M20.8007 29.1702L24.6707 32.5602C24.8507 32.7252 25.1357 32.7252 25.3157 32.5602L29.1857 29.1702C30.1907 28.2852 30.3257 26.7852 29.4857 25.7352C28.6457 24.6852 27.1157 24.4902 26.0507 25.3002L25.0007 26.1102L23.9357 25.3152C22.8557 24.5052 21.3407 24.7002 20.5007 25.7502C19.6607 26.7852 19.7957 28.3002 20.8007 29.1702Z" stroke="white" stroke-width="1.5" stroke-linecap="round" stroke-linejoin="round"/>
<path d="M40 23.5V32.5C40 38.5 38.5 40 32.5 40H17.5C11.5 40 10 38.5 10 32.5V17.5C10 11.5 11.5 10 17.5 10H19.75C22 10 22.495 10.66 23.35 11.8L25.6 14.8C26.17 15.55 26.5 16 28 16H32.5C38.5 16 40 17.5 40 23.5Z" stroke="white" stroke-width="1.5" stroke-miterlimit="10"/>
</svg>
