<svg width="30" height="30" viewBox="0 0 30 30" fill="none" xmlns="http://www.w3.org/2000/svg">
<path d="M8.70711 23.0429C8.31658 23.4334 7.68342 23.4334 7.29289 23.0429L6.95711 22.7071C6.56658 22.3166 6.56658 21.6834 6.95711 21.2929L12.5429 15.7071C12.9334 15.3166 12.9334 14.6834 12.5429 14.2929L6.95711 8.70711C6.56658 8.31658 6.56658 7.68342 6.95711 7.29289L7.29289 6.95711C7.68342 6.56658 8.31658 6.56658 8.70711 6.95711L14.2929 12.5429C14.6834 12.9334 15.3166 12.9334 15.7071 12.5429L21.2929 6.95711C21.6834 6.56658 22.3166 6.56658 22.7071 6.95711L23.0429 7.29289C23.4334 7.68342 23.4334 8.31658 23.0429 8.70711L17.4571 14.2929C17.0666 14.6834 17.0666 15.3166 17.4571 15.7071L23.0429 21.2929C23.4334 21.6834 23.4334 22.3166 23.0429 22.7071L22.7071 23.0429C22.3166 23.4334 21.6834 23.4334 21.2929 23.0429L15.7071 17.4571C15.3166 17.0666 14.6834 17.0666 14.2929 17.4571L8.70711 23.0429Z" fill="#FF4040"/>
</svg>
