<svg width="30" height="30" viewBox="0 0 30 30" fill="#FFFB9D" xmlns="http://www.w3.org/2000/svg">
<path d="M20.9943 6.35394L22.6487 9.68126C22.8717 10.1414 23.4701 10.578 23.9747 10.6724L26.967 11.1679C28.8797 11.4865 29.3256 12.8788 27.9527 14.2711L25.6175 16.6191C25.2303 17.0085 25.0074 17.7754 25.1365 18.33L25.8052 21.2325C26.3333 23.5215 25.113 24.4183 23.1065 23.2148L20.3019 21.5393C19.7973 21.2325 18.9526 21.2325 18.448 21.5393L15.6434 23.2148C13.6369 24.4065 12.4166 23.5215 12.9446 21.2325L13.6135 18.33C13.7426 17.7872 13.5196 17.0203 13.1324 16.6191L10.7973 14.2711C9.42438 12.8906 9.87028 11.4983 11.783 11.1679L14.7751 10.6724C15.2797 10.5898 15.8782 10.1414 16.1012 9.68126L17.7557 6.35394C18.6358 4.54869 20.0908 4.54869 20.9943 6.35394Z" stroke="black" stroke-width="1.5" stroke-linecap="round" stroke-linejoin="round"/>
<path d="M12.5 6.17188H5" stroke="black" stroke-width="1.5" stroke-linecap="round" stroke-linejoin="round"/>
<path d="M8.75 23.6719H5" stroke="black" stroke-width="1.5" stroke-linecap="round" stroke-linejoin="round"/>
<path d="M6.25 14.9219H5" stroke="black" stroke-width="1.5" stroke-linecap="round" stroke-linejoin="round"/>
</svg>
