<svg width="10" height="20" viewBox="0 0 10 20" fill="none" xmlns="http://www.w3.org/2000/svg">
<path fill-rule="evenodd" clip-rule="evenodd" d="M9.3491 0.231824C9.44577 0.314671 9.52516 0.415755 9.58274 0.5293C9.64032 0.642844 9.67495 0.766622 9.68467 0.89356C9.69439 1.0205 9.679 1.14811 9.63937 1.26909C9.59975 1.39008 9.53667 1.50207 9.45375 1.59867L2.24359 10.0116L9.45375 18.4245C9.61119 18.6207 9.6862 18.8704 9.6629 19.1208C9.63961 19.3712 9.51984 19.6028 9.32892 19.7666C9.138 19.9303 8.89089 20.0134 8.63982 19.9982C8.38876 19.9831 8.15342 19.8709 7.98355 19.6854L0.232079 10.6421C0.0816188 10.4665 -0.00108191 10.2428 -0.0010819 10.0116C-0.00108189 9.78036 0.0816188 9.55674 0.232079 9.38115L7.98355 0.337761C8.15083 0.142921 8.38862 0.0224562 8.64467 0.00283468C8.90072 -0.0167868 9.15409 0.0660396 9.3491 0.233116" fill="#36E326"/>
</svg>
