<svg width="50" height="50" viewBox="0 0 50 50" fill="none" xmlns="http://www.w3.org/2000/svg">
<g clip-path="url(#clip0_0_11712)">
<path d="M40 0H10C4.47715 0 0 4.47715 0 10V40C0 45.5228 4.47715 50 10 50H40C45.5228 50 50 45.5228 50 40V10C50 4.47715 45.5228 0 40 0Z" fill="#001E02"/>
<path d="M33.4347 17.3894C32.0943 15.3791 29.3779 14.836 27.3676 16.1764C25.3572 17.5169 24.8142 20.2332 26.1546 22.2436L31.6651 30.5079C33.0055 32.5182 35.7219 33.0613 37.7322 31.7209C39.7425 30.3804 40.2856 27.6641 38.9452 25.6537L33.4347 17.3894Z" fill="#36E326"/>
<path d="M10.451 26.2152C8.8214 27.9993 8.94662 30.7665 10.7307 32.3961C12.5147 34.0257 15.282 33.9004 16.9115 32.1164L21.9216 26.6314C23.5512 24.8474 23.4259 22.0801 21.6419 20.4505C19.8579 18.821 17.0906 18.9462 15.461 20.7302L10.451 26.2152Z" fill="#36E326"/>
<path d="M22.7152 21.5713C20.869 20.0125 18.1087 20.2455 16.5499 22.0917C14.9912 23.9379 15.2242 26.6982 17.0704 28.257L21.8725 32.3115C23.7187 33.8703 26.479 33.6372 28.0378 31.791C29.5966 29.9448 29.3636 27.1846 27.5174 25.6258L22.7152 21.5713Z" fill="#36E326"/>
<path d="M33.3359 21.6991C34.4622 19.5614 33.6422 16.9154 31.5045 15.7892C29.3668 14.663 26.7208 15.483 25.5946 17.6207L20.7665 26.785C19.6402 28.9228 20.4602 31.5687 22.5979 32.6949C24.7356 33.8212 27.3816 33.0012 28.5078 30.8635L33.3359 21.6991Z" fill="#36E326"/>
</g>
<defs>
<clipPath id="clip0_0_11712">
<rect width="50" height="50" rx="25" fill="white"/>
</clipPath>
</defs>
</svg>
