<svg width="50" height="50" viewBox="0 0 50 50" fill="none" xmlns="http://www.w3.org/2000/svg">
<g clip-path="url(#clip0_0_15)">
<path d="M40 0H10C4.47715 0 0 4.47715 0 10V40C0 45.5228 4.47715 50 10 50H40C45.5228 50 50 45.5228 50 40V10C50 4.47715 45.5228 0 40 0Z" fill="#001E02"/>
<path d="M33.4357 17.3894C32.0952 15.3791 29.3789 14.836 27.3686 16.1764C25.3582 17.5169 24.8152 20.2332 26.1556 22.2436L31.666 30.5079C33.0065 32.5182 35.7228 33.0613 37.7332 31.7209C39.7435 30.3804 40.2866 27.6641 38.9461 25.6537L33.4357 17.3894Z" fill="#36E326"/>
<path d="M10.451 26.2152C8.8214 27.9993 8.94662 30.7665 10.7307 32.3961C12.5147 34.0257 15.282 33.9004 16.9115 32.1164L21.9216 26.6314C23.5512 24.8474 23.4259 22.0801 21.6419 20.4505C19.8579 18.821 17.0906 18.9462 15.461 20.7302L10.451 26.2152Z" fill="#36E326"/>
<path d="M22.7162 21.5713C20.87 20.0125 18.1097 20.2455 16.5509 22.0917C14.9922 23.9379 15.2252 26.6982 17.0714 28.257L21.8735 32.3115C23.7197 33.8703 26.48 33.6372 28.0388 31.791C29.5975 29.9448 29.3645 27.1846 27.5183 25.6258L22.7162 21.5713Z" fill="#36E326"/>
<path d="M33.3369 21.6991C34.4631 19.5614 33.6432 16.9154 31.5055 15.7892C29.3677 14.663 26.7218 15.483 25.5955 17.6207L20.7674 26.785C19.6412 28.9228 20.4612 31.5687 22.5989 32.6949C24.7366 33.8212 27.3826 33.0012 28.5088 30.8635L33.3369 21.6991Z" fill="#36E326"/>
</g>
<defs>
<clipPath id="clip0_0_15">
<rect width="50" height="50" fill="white"/>
</clipPath>
</defs>
</svg>
