<svg width="31" height="30" viewBox="0 0 31 30" fill="none" xmlns="http://www.w3.org/2000/svg">
<path d="M28.1953 27.5H3.19531M25.6953 27.5V13.75M5.69531 27.5V13.75" stroke="black" stroke-width="1.5" stroke-linecap="round"/>
<path d="M21.355 2.5H10.035C8.53128 2.5 7.78003 2.5 7.17628 2.87375C6.57128 3.24625 6.23503 3.91875 5.56378 5.26375L3.80753 9.7C3.40253 10.725 3.04753 11.9325 3.73003 12.7988C4.05155 13.2075 4.49256 13.5059 4.99162 13.6522C5.49068 13.7985 6.02296 13.7856 6.51431 13.6151C7.00566 13.4447 7.43163 13.1253 7.73289 12.7013C8.03415 12.2774 8.1957 11.7701 8.19503 11.25C8.19503 11.913 8.45842 12.5489 8.92727 13.0178C9.39611 13.4866 10.032 13.75 10.695 13.75C11.3581 13.75 11.994 13.4866 12.4628 13.0178C12.9316 12.5489 13.195 11.913 13.195 11.25C13.195 11.913 13.4584 12.5489 13.9273 13.0178C14.3961 13.4866 15.032 13.75 15.695 13.75C16.3581 13.75 16.994 13.4866 17.4628 13.0178C17.9316 12.5489 18.195 11.913 18.195 11.25C18.195 11.913 18.4584 12.5489 18.9273 13.0178C19.3961 13.4866 20.032 13.75 20.695 13.75C21.3581 13.75 21.994 13.4866 22.4628 13.0178C22.9316 12.5489 23.195 11.913 23.195 11.25C23.195 11.7697 23.3568 12.2764 23.6581 12.6998C23.9594 13.1232 24.3852 13.4422 24.8761 13.6124C25.3671 13.7826 25.899 13.7956 26.3977 13.6496C26.8964 13.5035 27.3372 13.2057 27.6588 12.7975C28.3413 11.9312 27.9863 10.7237 27.5813 9.69875L25.8263 5.26375C25.155 3.91875 24.8188 3.24625 24.2138 2.87375C23.61 2.5 22.8588 2.5 21.355 2.5Z" stroke="black" stroke-width="1.5" stroke-linejoin="round"/>
<path d="M12.5703 26.875V23.125C12.5703 21.9562 12.5703 21.3725 12.8216 20.9375C12.9861 20.6525 13.2228 20.4158 13.5078 20.2513C13.9428 20 14.5266 20 15.6953 20C16.8641 20 17.4478 20 17.8828 20.2513C18.1678 20.4158 18.4045 20.6525 18.5691 20.9375C18.8203 21.3725 18.8203 21.9562 18.8203 23.125V26.875" stroke="black" stroke-width="1.5" stroke-linecap="round"/>
</svg>
