<svg width="30" height="30" viewBox="0 0 30 30" fill="none" xmlns="http://www.w3.org/2000/svg">
<path d="M27.5 27.5H2.5M25 27.5V13.75M5 27.5V13.75" stroke="#D9D9D9" stroke-width="1.5" stroke-linecap="round"/>
<path d="M20.6597 2.5H9.33972C7.83597 2.5 7.08472 2.5 6.48097 2.87375C5.87597 3.24625 5.53972 3.91875 4.86847 5.26375L3.11222 9.7C2.70722 10.725 2.35222 11.9325 3.03472 12.7988C3.35624 13.2075 3.79724 13.5059 4.29631 13.6522C4.79537 13.7985 5.32764 13.7856 5.819 13.6151C6.31035 13.4447 6.73632 13.1253 7.03758 12.7013C7.33884 12.2774 7.50038 11.7701 7.49972 11.25C7.49972 11.913 7.76311 12.5489 8.23195 13.0178C8.70079 13.4866 9.33668 13.75 9.99972 13.75C10.6628 13.75 11.2986 13.4866 11.7675 13.0178C12.2363 12.5489 12.4997 11.913 12.4997 11.25C12.4997 11.913 12.7631 12.5489 13.232 13.0178C13.7008 13.4866 14.3367 13.75 14.9997 13.75C15.6628 13.75 16.2986 13.4866 16.7675 13.0178C17.2363 12.5489 17.4997 11.913 17.4997 11.25C17.4997 11.913 17.7631 12.5489 18.232 13.0178C18.7008 13.4866 19.3367 13.75 19.9997 13.75C20.6628 13.75 21.2986 13.4866 21.7675 13.0178C22.2363 12.5489 22.4997 11.913 22.4997 11.25C22.4996 11.7697 22.6615 12.2764 22.9628 12.6998C23.2641 13.1232 23.6898 13.4422 24.1808 13.6124C24.6718 13.7826 25.2036 13.7956 25.7024 13.6496C26.2011 13.5035 26.6419 13.2057 26.9635 12.7975C27.646 11.9312 27.291 10.7237 26.886 9.69875L25.131 5.26375C24.4597 3.91875 24.1235 3.24625 23.5185 2.87375C22.9147 2.5 22.1635 2.5 20.6597 2.5Z" stroke="#D9D9D9" stroke-width="1.5" stroke-linejoin="round"/>
<path d="M11.875 26.875V23.125C11.875 21.9562 11.875 21.3725 12.1263 20.9375C12.2908 20.6525 12.5275 20.4158 12.8125 20.2513C13.2475 20 13.8312 20 15 20C16.1688 20 16.7525 20 17.1875 20.2513C17.4725 20.4158 17.7092 20.6525 17.8737 20.9375C18.125 21.3725 18.125 21.9562 18.125 23.125V26.875" stroke="#D9D9D9" stroke-width="1.5" stroke-linecap="round"/>
</svg>
