<svg width="30" height="30" viewBox="0 0 30 30" fill="none" xmlns="http://www.w3.org/2000/svg">
<path d="M27.9885 16.6192C27.9885 16.2525 27.7108 16.0692 27.1556 16.0692H10.0576C9.63855 16.0692 9.19067 16.1818 8.71398 16.407C8.2373 16.6323 7.86277 16.9073 7.59037 17.2321L2.97013 22.9366C2.78156 23.1881 2.68728 23.3976 2.68728 23.5652C2.68728 23.9319 2.96491 24.1153 3.52016 24.1153H20.6181C21.0372 24.1153 21.4877 24 21.9696 23.7695C22.4516 23.539 22.8235 23.2614 23.0854 22.9366L27.7056 17.2321C27.8942 17.0016 27.9885 16.7973 27.9885 16.6192L27.9885 16.6192ZM10.0576 14.0576H22.1268V11.5432C22.1268 11.1242 21.9801 10.7679 21.6868 10.4746C21.3934 10.1813 21.0372 10.0346 20.6181 10.0346H11.5663C11.1472 10.0346 10.791 9.88791 10.4976 9.59456C10.2043 9.30122 10.0576 8.94501 10.0576 8.52593V7.52018C10.0576 7.1011 9.91094 6.74489 9.61759 6.45155C9.32425 6.1582 8.96805 6.01153 8.549 6.01154H3.52016C3.1011 6.01154 2.74489 6.15821 2.45155 6.45156C2.1582 6.74491 2.01152 7.10112 2.01152 7.52019V20.9251L6.03457 15.9749C6.49554 15.4196 7.10319 14.9613 7.85751 14.5998C8.61184 14.2384 9.34521 14.0576 10.0576 14.0576ZM30 16.6192C30 17.2687 29.759 17.8973 29.2771 18.505L24.6412 24.2095C24.1907 24.7648 23.583 25.2232 22.8182 25.5846C22.0534 25.946 21.3201 26.1268 20.6181 26.1268H3.52016C2.55631 26.1268 1.72866 25.781 1.03719 25.0896C0.345731 24.3981 0 23.5705 0 22.6066V7.52018C0 6.55632 0.345731 5.72865 1.03719 5.03719C1.72866 4.34573 2.55631 4 3.52016 4H8.549C9.51285 4 10.3405 4.34573 11.032 5.03719C11.7234 5.72865 12.0692 6.55632 12.0692 7.52018V8.02306H20.6182C21.582 8.02306 22.4096 8.36879 23.1011 9.06024C23.7926 9.7517 24.1383 10.5794 24.1383 11.5432V14.0576H27.1556C27.7213 14.0576 28.2399 14.186 28.7114 14.4426C29.1828 14.6993 29.5338 15.0686 29.7643 15.5506C29.9214 15.8858 30 16.242 30 16.6192Z" fill="black"/>
</svg>
