<svg width="33" height="32" viewBox="0 0 33 32" fill="none" xmlns="http://www.w3.org/2000/svg">
<path d="M16.6953 20C18.9045 20 20.6953 18.2091 20.6953 16C20.6953 13.7909 18.9045 12 16.6953 12C14.4862 12 12.6953 13.7909 12.6953 16C12.6953 18.2091 14.4862 20 16.6953 20Z" stroke="black" stroke-width="2" stroke-linecap="round" stroke-linejoin="round"/>
<path d="M26.7862 20.0909C26.6047 20.5022 26.5506 20.9584 26.6308 21.4008C26.711 21.8432 26.9219 22.2513 27.2362 22.5727L27.318 22.6545C27.5716 22.9078 27.7728 23.2086 27.91 23.5397C28.0473 23.8708 28.1179 24.2257 28.1179 24.5841C28.1179 24.9425 28.0473 25.2974 27.91 25.6285C27.7728 25.9596 27.5716 26.2603 27.318 26.5136C27.0648 26.7672 26.764 26.9684 26.4329 27.1056C26.1018 27.2429 25.7469 27.3135 25.3885 27.3135C25.0301 27.3135 24.6752 27.2429 24.3441 27.1056C24.013 26.9684 23.7122 26.7672 23.4589 26.5136L23.3771 26.4318C23.0557 26.1174 22.6476 25.9066 22.2052 25.8264C21.7628 25.7461 21.3066 25.8003 20.8953 25.9818C20.492 26.1547 20.148 26.4417 19.9057 26.8075C19.6634 27.1734 19.5334 27.6021 19.5317 28.0409V28.2727C19.5317 28.996 19.2443 29.6897 18.7329 30.2012C18.2214 30.7127 17.5277 31 16.8044 31C16.0811 31 15.3874 30.7127 14.8759 30.2012C14.3645 29.6897 14.0771 28.996 14.0771 28.2727V28.15C14.0666 27.6986 13.9205 27.2609 13.6578 26.8937C13.3952 26.5265 13.0281 26.2468 12.6044 26.0909C12.1931 25.9094 11.7369 25.8552 11.2945 25.9354C10.8522 26.0157 10.444 26.2265 10.1226 26.5409L10.0408 26.6227C9.78748 26.8763 9.48669 27.0775 9.1556 27.2147C8.82452 27.352 8.46963 27.4226 8.11122 27.4226C7.75282 27.4226 7.39792 27.352 7.06684 27.2147C6.73575 27.0775 6.43497 26.8763 6.18168 26.6227C5.9281 26.3694 5.72694 26.0686 5.58969 25.7376C5.45245 25.4065 5.3818 25.0516 5.3818 24.6932C5.3818 24.3348 5.45245 23.9799 5.58969 23.6488C5.72694 23.3177 5.9281 23.0169 6.18168 22.7636L6.26349 22.6818C6.57786 22.3604 6.78875 21.9523 6.86896 21.5099C6.94916 21.0675 6.89502 20.6113 6.71349 20.2C6.54064 19.7967 6.25362 19.4527 5.88777 19.2104C5.52192 18.9681 5.0932 18.8381 4.6544 18.8364H4.42259C3.69927 18.8364 3.00558 18.549 2.49411 18.0376C1.98265 17.5261 1.69531 16.8324 1.69531 16.1091C1.69531 15.3858 1.98265 14.6921 2.49411 14.1806C3.00558 13.6692 3.69927 13.3818 4.42259 13.3818H4.54531C4.99667 13.3713 5.43441 13.2252 5.80163 12.9625C6.16885 12.6999 6.44856 12.3328 6.6044 11.9091C6.78592 11.4978 6.84007 11.0416 6.75986 10.5992C6.67966 10.1568 6.46877 9.74865 6.1544 9.42727L6.07259 9.34545C5.81901 9.09216 5.61785 8.79138 5.4806 8.46029C5.34336 8.12921 5.27271 7.77431 5.27271 7.41591C5.27271 7.0575 5.34336 6.70261 5.4806 6.37153C5.61785 6.04044 5.81901 5.73965 6.07259 5.48636C6.32588 5.23279 6.62666 5.03163 6.95775 4.89438C7.28883 4.75713 7.64372 4.68649 8.00213 4.68649C8.36054 4.68649 8.71543 4.75713 9.04651 4.89438C9.3776 5.03163 9.67839 5.23279 9.93168 5.48636L10.0135 5.56818C10.3349 5.88255 10.7431 6.09344 11.1854 6.17364C11.6278 6.25385 12.084 6.1997 12.4953 6.01818H12.6044C13.0077 5.84532 13.3517 5.5583 13.594 5.19245C13.8363 4.8266 13.9663 4.39789 13.968 3.95909V3.72727C13.968 3.00396 14.2554 2.31026 14.7668 1.7988C15.2783 1.28734 15.972 1 16.6953 1C17.4186 1 18.1123 1.28734 18.6238 1.7988C19.1352 2.31026 19.4226 3.00396 19.4226 3.72727V3.85C19.4243 4.2888 19.5544 4.71751 19.7966 5.08336C20.0389 5.44921 20.3829 5.73623 20.7862 5.90909C21.1975 6.09061 21.6538 6.14476 22.0961 6.06455C22.5385 5.98434 22.9467 5.77346 23.268 5.45909L23.3499 5.37727C23.6031 5.1237 23.9039 4.92254 24.235 4.78529C24.5661 4.64804 24.921 4.5774 25.2794 4.5774C25.6378 4.5774 25.9927 4.64804 26.3238 4.78529C26.6549 4.92254 26.9557 5.1237 27.2089 5.37727C27.4625 5.63056 27.6637 5.93135 27.8009 6.26244C27.9382 6.59352 28.0088 6.94841 28.0088 7.30682C28.0088 7.66522 27.9382 8.02012 27.8009 8.3512C27.6637 8.68229 27.4625 8.98307 27.2089 9.23636L27.1271 9.31818C26.8128 9.63956 26.6019 10.0477 26.5217 10.4901C26.4415 10.9325 26.4956 11.3887 26.6771 11.8V11.9091C26.85 12.3124 27.137 12.6564 27.5029 12.8987C27.8687 13.141 28.2974 13.271 28.7362 13.2727H28.968C29.6914 13.2727 30.3851 13.5601 30.8965 14.0715C31.408 14.583 31.6953 15.2767 31.6953 16C31.6953 16.7233 31.408 17.417 30.8965 17.9285C30.3851 18.4399 29.6914 18.7273 28.968 18.7273H28.8453C28.4065 18.729 27.9778 18.859 27.612 19.1013C27.2461 19.3436 26.9591 19.6876 26.7862 20.0909Z" stroke="black" stroke-width="2" stroke-linecap="round" stroke-linejoin="round"/>
</svg>
